<svg xmlns="http://www.w3.org/2000/svg" class="main-svg" style="background: white;" width="954.74" height="525" xmlns:xlink="http://www.w3.org/1999/xlink"><defs id="defs-d9063f"><g class="clips"><clipPath class="plotclip" id="clipd9063fxyplot"><rect width="720" height="345"/></clipPath><clipPath class="axesclip" id="clipd9063fx"><rect x="80" y="0" width="720" height="525"/></clipPath><clipPath class="axesclip" id="clipd9063fy"><rect x="0" y="100" width="954.74" height="345"/></clipPath><clipPath class="axesclip" id="clipd9063fxy"><rect x="80" y="100" width="720" height="345"/></clipPath></g><g class="gradients"/></defs><g class="bglayer"><rect class="bg" style="fill: rgb(229, 236, 246); fill-opacity: 1; stroke-width: 0;" x="80" y="100" width="720" height="345"/></g><g class="draglayer cursor-crosshair"><g class="xy"><rect class="nsewdrag drag" style="fill: transparent; pointer-events: all; stroke-width: 0;" x="80" y="100" width="720" height="345" data-subplot="xy"/><rect class="nwdrag drag cursor-nw-resize" style="fill: transparent; pointer-events: all; stroke-width: 0;" x="60" y="80" width="20" height="20" data-subplot="xy"/><rect class="nedrag drag cursor-ne-resize" style="fill: transparent; pointer-events: all; stroke-width: 0;" x="800" y="80" width="20" height="20" data-subplot="xy"/><rect class="swdrag drag cursor-sw-resize" style="fill: transparent; pointer-events: all; stroke-width: 0;" x="60" y="445" width="20" height="20" data-subplot="xy"/><rect class="sedrag drag cursor-se-resize" style="fill: transparent; pointer-events: all; stroke-width: 0;" x="800" y="445" width="20" height="20" data-subplot="xy"/><rect class="ewdrag drag cursor-ew-resize" style="fill: transparent; pointer-events: all; stroke-width: 0;" x="152" y="445.5" width="576" height="20" data-subplot="xy"/><rect class="wdrag drag cursor-w-resize" style="fill: transparent; pointer-events: all; stroke-width: 0;" x="80" y="445.5" width="72" height="20" data-subplot="xy"/><rect class="edrag drag cursor-e-resize" style="fill: transparent; pointer-events: all; stroke-width: 0;" x="728" y="445.5" width="72" height="20" data-subplot="xy"/><rect class="nsdrag drag cursor-ns-resize" style="fill: transparent; pointer-events: all; stroke-width: 0;" x="59.5" y="134.5" width="20" height="276" data-subplot="xy"/><rect class="sdrag drag cursor-s-resize" style="fill: transparent; pointer-events: all; stroke-width: 0;" x="59.5" y="410.5" width="20" height="34.5" data-subplot="xy"/><rect class="ndrag drag cursor-n-resize" style="fill: transparent; pointer-events: all; stroke-width: 0;" x="59.5" y="100" width="20" height="34.5" data-subplot="xy"/></g></g><g class="layer-below"><g class="imagelayer"/><g class="shapelayer"/></g><g class="cartesianlayer"><g class="subplot xy"><g class="layer-subplot"><g class="shapelayer"/><g class="imagelayer"/></g><g class="gridlayer"><g class="x"><path class="xgrid crisp" style="stroke: rgb(255, 255, 255); stroke-opacity: 1; stroke-width: 1px;" transform="translate(204.76)" d="M 0 100 v 345"/><path class="xgrid crisp" style="stroke: rgb(255, 255, 255); stroke-opacity: 1; stroke-width: 1px;" transform="translate(335.65)" d="M 0 100 v 345"/><path class="xgrid crisp" style="stroke: rgb(255, 255, 255); stroke-opacity: 1; stroke-width: 1px;" transform="translate(466.54)" d="M 0 100 v 345"/><path class="xgrid crisp" style="stroke: rgb(255, 255, 255); stroke-opacity: 1; stroke-width: 1px;" transform="translate(597.43)" d="M 0 100 v 345"/><path class="xgrid crisp" style="stroke: rgb(255, 255, 255); stroke-opacity: 1; stroke-width: 1px;" transform="translate(728.32)" d="M 0 100 v 345"/></g><g class="y"><path class="ygrid crisp" style="stroke: rgb(255, 255, 255); stroke-opacity: 1; stroke-width: 1px;" transform="translate(0 424)" d="M 80 0 h 720"/><path class="ygrid crisp" style="stroke: rgb(255, 255, 255); stroke-opacity: 1; stroke-width: 1px;" transform="translate(0 380.71)" d="M 80 0 h 720"/><path class="ygrid crisp" style="stroke: rgb(255, 255, 255); stroke-opacity: 1; stroke-width: 1px;" transform="translate(0 337.43)" d="M 80 0 h 720"/><path class="ygrid crisp" style="stroke: rgb(255, 255, 255); stroke-opacity: 1; stroke-width: 1px;" transform="translate(0 294.14)" d="M 80 0 h 720"/><path class="ygrid crisp" style="stroke: rgb(255, 255, 255); stroke-opacity: 1; stroke-width: 1px;" transform="translate(0 250.86)" d="M 80 0 h 720"/><path class="ygrid crisp" style="stroke: rgb(255, 255, 255); stroke-opacity: 1; stroke-width: 1px;" transform="translate(0 207.57)" d="M 80 0 h 720"/><path class="ygrid crisp" style="stroke: rgb(255, 255, 255); stroke-opacity: 1; stroke-width: 1px;" transform="translate(0 164.29)" d="M 80 0 h 720"/><path class="ygrid crisp" style="stroke: rgb(255, 255, 255); stroke-opacity: 1; stroke-width: 1px;" transform="translate(0 121)" d="M 80 0 h 720"/></g></g><g class="zerolinelayer"/><path class="xlines-below"/><path class="ylines-below"/><g class="overlines-below"/><g class="xaxislayer-below"/><g class="yaxislayer-below"/><g class="overaxes-below"/><g class="plot" clip-path="url(#clipd9063fxyplot)" transform="translate(80 100)"><g class="scatterlayer mlayer"><g class="trace scatter trace9435a0" style="opacity: 1; stroke-miterlimit: 2;"><g class="fills"/><g class="errorbars"/><g class="lines"/><g class="points"><path class="point" style="opacity: 1; fill: rgb(99, 110, 250); fill-opacity: 1; stroke-width: 0px;" transform="translate(244.56 150.86)" d="M 3 0 A 3 3 0 1 1 0 -3 A 3 3 0 0 1 3 0 Z"/></g><g class="text"/></g><g class="trace scatter tracec37a42" style="opacity: 1; stroke-miterlimit: 2;"><g class="fills"/><g class="errorbars"/><g class="lines"/><g class="points"><path class="point" style="opacity: 1; fill: rgb(239, 85, 59); fill-opacity: 1; stroke-width: 0px;" transform="translate(431.55 21)" d="M 3 0 A 3 3 0 1 1 0 -3 A 3 3 0 0 1 3 0 Z"/></g><g class="text"/></g><g class="trace scatter trace9b9131" style="opacity: 1; stroke-miterlimit: 2;"><g class="fills"/><g class="errorbars"/><g class="lines"/><g class="points"><path class="point" style="opacity: 1; fill: rgb(0, 204, 150); fill-opacity: 1; stroke-width: 0px;" transform="translate(407.33 302.36)" d="M 3 0 A 3 3 0 1 1 0 -3 A 3 3 0 0 1 3 0 Z"/></g><g class="text"/></g><g class="trace scatter trace7b6906" style="opacity: 1; stroke-miterlimit: 2;"><g class="fills"/><g class="errorbars"/><g class="lines"/><g class="points"><path class="point" style="opacity: 1; fill: rgb(171, 99, 250); fill-opacity: 1; stroke-width: 0px;" transform="translate(62.85 324)" d="M 3 0 A 3 3 0 1 1 0 -3 A 3 3 0 0 1 3 0 Z"/></g><g class="text"/></g><g class="trace scatter tracea20f0c" style="opacity: 1; stroke-miterlimit: 2;"><g class="fills"/><g class="errorbars"/><g class="lines"/><g class="points"><path class="point" style="opacity: 1; fill: rgb(255, 161, 90); fill-opacity: 1; stroke-width: 0px;" transform="translate(39.75 280.71)" d="M 3 0 A 3 3 0 1 1 0 -3 A 3 3 0 0 1 3 0 Z"/></g><g class="text"/></g><g class="trace scatter traceedd790" style="opacity: 1; stroke-miterlimit: 2;"><g class="fills"/><g class="errorbars"/><g class="lines"/><g class="points"><path class="point" style="opacity: 1; fill: rgb(25, 211, 243); fill-opacity: 1; stroke-width: 0px;" transform="translate(176.7 194.14)" d="M 3 0 A 3 3 0 1 1 0 -3 A 3 3 0 0 1 3 0 Z"/></g><g class="text"/></g><g class="trace scatter tracedf7215" style="opacity: 1; stroke-miterlimit: 2;"><g class="fills"/><g class="errorbars"/><g class="lines"/><g class="points"><path class="point" style="opacity: 1; fill: rgb(255, 102, 146); fill-opacity: 1; stroke-width: 0px;" transform="translate(680.25 21)" d="M 3 0 A 3 3 0 1 1 0 -3 A 3 3 0 0 1 3 0 Z"/></g><g class="text"/></g><g class="trace scatter trace4bc1dc" style="opacity: 1; stroke-miterlimit: 2;"><g class="fills"/><g class="errorbars"/><g class="lines"/><g class="points"><path class="point" style="opacity: 1; fill: rgb(182, 232, 128); fill-opacity: 1; stroke-width: 0px;" transform="translate(88 150.86)" d="M 3 0 A 3 3 0 1 1 0 -3 A 3 3 0 0 1 3 0 Z"/></g><g class="text"/></g></g></g><g class="overplot"/><path class="xlines-above crisp" style="fill: none;" d="M 0 0"/><path class="ylines-above crisp" style="fill: none;" d="M 0 0"/><g class="overlines-above"/><g class="xaxislayer-above"><g class="xtick"><text style="font-family: &quot;Open Sans&quot;,verdana,arial,sans-serif; font-size: 12px; white-space: pre; fill: rgb(42, 63, 95); fill-opacity: 1;" text-anchor="middle" transform="translate(204.76)" x="0" y="458" data-unformatted="60" data-math="N">60</text></g><g class="xtick"><text style="font-family: &quot;Open Sans&quot;,verdana,arial,sans-serif; font-size: 12px; white-space: pre; fill: rgb(42, 63, 95); fill-opacity: 1;" text-anchor="middle" transform="translate(335.65)" x="0" y="458" data-unformatted="65" data-math="N">65</text></g><g class="xtick"><text style="font-family: &quot;Open Sans&quot;,verdana,arial,sans-serif; font-size: 12px; white-space: pre; fill: rgb(42, 63, 95); fill-opacity: 1;" text-anchor="middle" transform="translate(466.54)" x="0" y="458" data-unformatted="70" data-math="N">70</text></g><g class="xtick"><text style="font-family: &quot;Open Sans&quot;,verdana,arial,sans-serif; font-size: 12px; white-space: pre; fill: rgb(42, 63, 95); fill-opacity: 1;" text-anchor="middle" transform="translate(597.43)" x="0" y="458" data-unformatted="75" data-math="N">75</text></g><g class="xtick"><text style="font-family: &quot;Open Sans&quot;,verdana,arial,sans-serif; font-size: 12px; white-space: pre; fill: rgb(42, 63, 95); fill-opacity: 1;" text-anchor="middle" transform="translate(728.32)" x="0" y="458" data-unformatted="80" data-math="N">80</text></g></g><g class="yaxislayer-above"><g class="ytick"><text style="font-family: &quot;Open Sans&quot;,verdana,arial,sans-serif; font-size: 12px; white-space: pre; fill: rgb(42, 63, 95); fill-opacity: 1;" text-anchor="end" transform="translate(0 424)" x="79" y="4.2" data-unformatted="74" data-math="N">74</text></g><g class="ytick"><text style="font-family: &quot;Open Sans&quot;,verdana,arial,sans-serif; font-size: 12px; white-space: pre; fill: rgb(42, 63, 95); fill-opacity: 1;" text-anchor="end" transform="translate(0 380.71)" x="79" y="4.2" data-unformatted="75" data-math="N">75</text></g><g class="ytick"><text style="font-family: &quot;Open Sans&quot;,verdana,arial,sans-serif; font-size: 12px; white-space: pre; fill: rgb(42, 63, 95); fill-opacity: 1;" text-anchor="end" transform="translate(0 337.43)" x="79" y="4.2" data-unformatted="76" data-math="N">76</text></g><g class="ytick"><text style="font-family: &quot;Open Sans&quot;,verdana,arial,sans-serif; font-size: 12px; white-space: pre; fill: rgb(42, 63, 95); fill-opacity: 1;" text-anchor="end" transform="translate(0 294.14)" x="79" y="4.2" data-unformatted="77" data-math="N">77</text></g><g class="ytick"><text style="font-family: &quot;Open Sans&quot;,verdana,arial,sans-serif; font-size: 12px; white-space: pre; fill: rgb(42, 63, 95); fill-opacity: 1;" text-anchor="end" transform="translate(0 250.86)" x="79" y="4.2" data-unformatted="78" data-math="N">78</text></g><g class="ytick"><text style="font-family: &quot;Open Sans&quot;,verdana,arial,sans-serif; font-size: 12px; white-space: pre; fill: rgb(42, 63, 95); fill-opacity: 1;" text-anchor="end" transform="translate(0 207.57)" x="79" y="4.2" data-unformatted="79" data-math="N">79</text></g><g class="ytick"><text style="font-family: &quot;Open Sans&quot;,verdana,arial,sans-serif; font-size: 12px; white-space: pre; fill: rgb(42, 63, 95); fill-opacity: 1;" text-anchor="end" transform="translate(0 164.29)" x="79" y="4.2" data-unformatted="80" data-math="N">80</text></g><g class="ytick"><text style="font-family: &quot;Open Sans&quot;,verdana,arial,sans-serif; font-size: 12px; white-space: pre; fill: rgb(42, 63, 95); fill-opacity: 1;" text-anchor="end" transform="translate(0 121)" x="79" y="4.2" data-unformatted="81" data-math="N">81</text></g></g><g class="overaxes-above"/></g></g><g class="polarlayer"/><g class="ternarylayer"/><g class="geolayer"/><g class="funnelarealayer"/><g class="pielayer"/><g class="treemaplayer"/><g class="sunburstlayer"/><g class="glimages"/></svg>